<?xml version="1.0" encoding="utf-8"?>
<svg xmlns="http://www.w3.org/2000/svg" viewBox="208.625 -2.914 79.836 104.895">
  <g transform="matrix(1, 0, 0, 1, 196.057147, -1.874963)">
    <path d="m63.852 28.289v-3.8867c-0.007812-3.0117-2.0547-5.6367-4.9727-6.3828v-6.6055c-0.003906-2.8516-2.3164-5.1602-5.168-5.1641h-7.4219c-2.8516 0.003906-5.1641 2.3125-5.168 5.1641v6.6055c-2.918 0.74609-4.9648 3.3711-4.9727 6.3828v3.8867c-4.3633 1.4492-7.3125 5.5273-7.3203 10.125v44.664c0.007813 5.8906 4.7812 10.664 10.672 10.672h21c5.8906-0.007812 10.664-4.7812 10.672-10.672v-44.664c-0.007813-4.5977-2.957-8.6758-7.3203-10.125zm-17.562-18.914h7.4258-0.003906c1.1289 0 2.043 0.91406 2.043 2.0391v6.375l-11.508 0.003907v-6.3789c0-1.125 0.91406-2.0391 2.043-2.0391zm-7.0156 15.027c0-1.9258 1.5586-3.4844 3.4844-3.4844h14.488-0.003906c1.9258 0 3.4805 1.5586 3.4844 3.4844v3.3516c-0.078124 0-0.15234-0.011718-0.23047-0.011718h-20.996c-0.078125 0-0.15234 0.011718-0.23047 0.011718zm21.227 66.223h-21c-4.1641-0.003906-7.543-3.3828-7.5469-7.5469v-44.664c0.003906-4.168 3.3828-7.543 7.5469-7.5469h21c4.1641 0.003906 7.543 3.3789 7.5469 7.5469v10.125h-21.613c-2.9336 0-5.3086 2.3789-5.3125 5.3086v21.75c0 2.9375 2.375 5.3203 5.3125 5.332h21.609l0.003906 2.1484c-0.007813 4.1641-3.3828 7.543-7.5469 7.5469zm7.5469-12.82h-21.613c-1.2109-0.007813-2.1914-0.99609-2.1875-2.207v-21.746c0.003906-1.207 0.98047-2.1875 2.1875-2.1875h21.609z" style="fill: rgb(255, 255, 255);"/>
    <path d="m56.145 73.203c11.195-0.35547 11.191-16.586 0-16.941-11.191 0.35547-11.191 16.59 0 16.941zm0-13.816c2.9336 0.03125 5.2891 2.418 5.2891 5.3477s-2.3555 5.3125-5.2891 5.3438c-2.9297-0.03125-5.2852-2.4141-5.2852-5.3438s2.3555-5.3164 5.2852-5.3477z" style="fill: rgb(255, 255, 255);"/>
    <path d="m68.109 15.25h-4.0391c-0.86328 0-1.5625 0.69922-1.5625 1.5625s0.69922 1.5625 1.5625 1.5625h4.043-0.003906c0.86328 0 1.5625-0.69922 1.5625-1.5625s-0.69922-1.5625-1.5625-1.5625z" style="fill: rgb(255, 255, 255);"/>
    <path d="m63.262 13.754c0.074219 0.17578 5.168-1.8828 5.4023-1.9375 0.80859-0.30859 1.2148-1.2109 0.91016-2.0156-0.30859-0.80859-1.2109-1.2148-2.0156-0.91016l-4.8516 1.8359c-0.69531 0.27734-1.0977 1.0078-0.96094 1.7422 0.13281 0.73438 0.76953 1.2695 1.5156 1.2852z" style="fill: rgb(255, 255, 255);"/>
  </g>
</svg>