<svg version="1.1" preserveAspectRatio="none" xmlns="http://www.w3.org/2000/svg" width="500" height="50" viewBox="0 0 500 500"><rect width="100%" height="50%" fill="#FFFFFF" fill-opacity="1"/><svg viewBox="96.0662 120.5966 443.3911 64.56" width="333" height="20" x="83.5px" y="225.7568px" xmlns="http://www.w3.org/2000/svg" xmlns:xlink="http://www.w3.org/1999/xlink" preserveAspectRatio="none"><defs></defs><style>.companyName {fill:#182145;fill-opacity:1;}.icon1 {fill:#182145;fill-opacity:1;}.icon2 {fill:#E35B34;fill-opacity:1;}.icon3 {fill:#E3D454;fill-opacity:1;}.icon3-str {stroke:#E3D454;stroke-opacity:1;}.text {fill:#182145;fill-opacity:1;}</style><g opacity="1" transform="rotate(0 96.0662 120.5966)">
<svg width="39.1397" height="20" x="96.0662" y="120.5966" version="1.1" preserveAspectRatio="none" viewBox="51.5 20.000991821289062 97 159.99900817871094">
  <g transform="matrix(1 0 0 1 0 0)"><g><path d="M121.741 180H61.534c-5.533 0-10.034-4.486-10.034-10V76.667c0-4.554 2.13-9.568 5.698-13.412 3.943-4.248 9.047-6.588 14.371-6.588h40.138c11.302 0 20.069 10.751 20.069 20V170c0 5.514-4.502 10-10.035 10zM71.569 63.333c-5.388 0-13.38 5.599-13.38 13.333V170a3.343 3.343 0 0 0 3.345 3.333h60.207a3.343 3.343 0 0 0 3.345-3.333V76.667c0-5.369-5.618-13.333-13.379-13.333H71.569z" data-color="1" class="icon1"></path><path d="M105.017 50a3.34 3.34 0 0 1-3.345-3.333v-8.619l-2.365-2.357a3.329 3.329 0 0 1-.98-2.357v-6.667H84.948v6.667c0 .884-.352 1.732-.98 2.357l-2.365 2.357v8.619c0 1.841-1.497 3.333-3.345 3.333s-3.345-1.492-3.345-3.333v-10c0-.884.352-1.732.98-2.357l2.365-2.357v-8.619a3.338 3.338 0 0 1 3.345-3.333h20.069a3.34 3.34 0 0 1 3.345 3.333v8.619l2.365 2.357c.627.625.98 1.473.98 2.357v10A3.338 3.338 0 0 1 105.017 50z" data-color="1" class="icon1"></path><path d="M111.707 63.333A3.34 3.34 0 0 1 108.362 60V50h-6.69a3.34 3.34 0 0 1-3.345-3.333 3.338 3.338 0 0 1 3.345-3.333h10.034a3.34 3.34 0 0 1 3.345 3.333V60a3.338 3.338 0 0 1-3.344 3.333z" data-color="1" class="icon1"></path><path d="M71.569 63.333A3.34 3.34 0 0 1 68.224 60V46.667a3.338 3.338 0 0 1 3.345-3.333h18.397a3.34 3.34 0 0 1 3.345 3.333A3.338 3.338 0 0 1 89.966 50H74.914v10a3.34 3.34 0 0 1-3.345 3.333z" data-color="1" class="icon1"></path><path d="M145.155 26.667h-3.345a3.34 3.34 0 0 1-3.345-3.333 3.34 3.34 0 0 1 3.345-3.333h3.345a3.34 3.34 0 0 1 3.345 3.333 3.34 3.34 0 0 1-3.345 3.333z" data-color="1" class="icon1"></path><path d="M145.155 40h-3.345a3.34 3.34 0 0 1-3.345-3.333 3.34 3.34 0 0 1 3.345-3.333h3.345a3.34 3.34 0 0 1 3.345 3.333A3.34 3.34 0 0 1 145.155 40z" data-color="1" class="icon1"></path><path d="M128.431 33.333h-3.345c-1.847 0-3.345-1.492-3.345-3.333s1.498-3.333 3.345-3.333h3.345c1.847 0 3.345 1.492 3.345 3.333s-1.498 3.333-3.345 3.333z" data-color="1" class="icon1"></path><path d="M128.431 46.667h-3.345a3.34 3.34 0 0 1-3.345-3.333 3.34 3.34 0 0 1 3.345-3.333h3.345a3.34 3.34 0 0 1 3.345 3.333 3.34 3.34 0 0 1-3.345 3.333z" data-color="1" class="icon1"></path><path d="M145.155 53.333h-3.345c-1.847 0-3.345-1.492-3.345-3.333s1.498-3.333 3.345-3.333h3.345c1.847 0 3.345 1.492 3.345 3.333s-1.498 3.333-3.345 3.333z" data-color="1" class="icon1"></path><path d="M91.638 126.667c-7.377 0-13.379-5.981-13.379-13.333s6.002-13.333 13.379-13.333 13.379 5.981 13.379 13.333c0 7.351-6.002 13.333-13.379 13.333zm0-20c-3.689 0-6.69 2.991-6.69 6.667 0 3.676 3.001 6.667 6.69 6.667s6.69-2.991 6.69-6.667c0-3.677-3.001-6.667-6.69-6.667z" data-color="1" class="icon1"></path><path d="M91.638 96.572a3.34 3.34 0 0 1-3.345-3.333v-5.426c0-1.841 1.497-3.333 3.345-3.333s3.345 1.492 3.345 3.333v5.426a3.34 3.34 0 0 1-3.345 3.333z" data-color="1" class="icon1"></path><path d="M77.38 102.457a3.343 3.343 0 0 1-2.365-.976l-3.85-3.837a3.326 3.326 0 0 1 0-4.714 3.352 3.352 0 0 1 4.73 0l3.85 3.837a3.326 3.326 0 0 1 0 4.714 3.339 3.339 0 0 1-2.365.976z" data-color="1" class="icon1"></path><path d="M71.474 116.667h-5.445a3.34 3.34 0 0 1-3.345-3.333 3.338 3.338 0 0 1 3.345-3.333h5.445a3.34 3.34 0 0 1 3.345 3.333 3.34 3.34 0 0 1-3.345 3.333z" data-color="1" class="icon1"></path><path d="M73.53 134.713a3.343 3.343 0 0 1-2.365-.976 3.326 3.326 0 0 1 0-4.714l3.85-3.837a3.352 3.352 0 0 1 4.73 0 3.326 3.326 0 0 1 0 4.714l-3.85 3.837a3.343 3.343 0 0 1-2.365.976z" data-color="1" class="icon1"></path><path d="M91.638 142.188a3.34 3.34 0 0 1-3.345-3.333v-5.426c0-1.841 1.497-3.333 3.345-3.333s3.345 1.492 3.345 3.333v5.426a3.34 3.34 0 0 1-3.345 3.333z" data-color="1" class="icon1"></path><path d="M109.746 134.713a3.343 3.343 0 0 1-2.365-.976l-3.85-3.837a3.326 3.326 0 0 1 0-4.714 3.352 3.352 0 0 1 4.73 0l3.85 3.837a3.326 3.326 0 0 1 0 4.714 3.343 3.343 0 0 1-2.365.976z" data-color="1" class="icon1"></path><path d="M117.247 116.667h-5.445a3.34 3.34 0 0 1-3.345-3.333 3.338 3.338 0 0 1 3.345-3.333h5.445a3.34 3.34 0 0 1 3.345 3.333 3.34 3.34 0 0 1-3.345 3.333z" data-color="1" class="icon1"></path><path d="M105.896 102.457a3.343 3.343 0 0 1-2.365-.976 3.326 3.326 0 0 1 0-4.714l3.85-3.837a3.352 3.352 0 0 1 4.73 0 3.326 3.326 0 0 1 0 4.714l-3.85 3.837a3.339 3.339 0 0 1-2.365.976z" data-color="1" class="icon1"></path></g></g>
</svg>
</g><g opacity="1" transform="rotate(0 155.2059 168.5966)">
<svg width="257.272" height="16.56" x="155.2059" y="168.5966" version="1.1" preserveAspectRatio="none" viewBox="-0.2 -30.88 484.2 31.16">
  <g transform="matrix(1 0 0 1 0 0)" class="text"><path id="id-6izo4zJp21" d="M24.16-28L29.36-28L17.16 0L12.04 0L-0.20-28L5.44-28L14.76-6.40L24.16-28Z M33.24 0L33.24-21.36L38.24-21.36L38.24 0L33.24 0ZM35.76-24.88Q34.40-24.88 33.48-25.74Q32.56-26.60 32.56-27.88L32.56-27.88Q32.56-29.16 33.48-30.02Q34.40-30.88 35.76-30.88L35.76-30.88Q37.12-30.88 38.04-30.06Q38.96-29.24 38.96-28L38.96-28Q38.96-26.68 38.06-25.78Q37.16-24.88 35.76-24.88L35.76-24.88Z M61.20-21.36L66-21.36L56.84 0L51.68 0L42.52-21.36L47.72-21.36L54.36-5.52L61.20-21.36Z M89.80-10.56Q89.80-10.04 89.72-9.08L89.72-9.08L72.96-9.08Q73.40-6.72 75.26-5.34Q77.12-3.96 79.88-3.96L79.88-3.96Q83.40-3.96 85.68-6.28L85.68-6.28L88.36-3.20Q86.92-1.48 84.72-0.60Q82.52 0.28 79.76 0.28L79.76 0.28Q76.24 0.28 73.56-1.12Q70.88-2.52 69.42-5.02Q67.96-7.52 67.96-10.68L67.96-10.68Q67.96-13.80 69.38-16.30Q70.80-18.80 73.32-20.20Q75.84-21.60 79.00-21.60L79.00-21.60Q82.12-21.60 84.58-20.22Q87.04-18.84 88.42-16.34Q89.80-13.84 89.80-10.56L89.80-10.56ZM79.00-17.60Q76.60-17.60 74.94-16.18Q73.28-14.76 72.92-12.40L72.92-12.40L85.04-12.40Q84.72-14.72 83.08-16.16Q81.44-17.60 79.00-17.60L79.00-17.60Z M128.12-10.56Q128.12-10.04 128.04-9.08L128.04-9.08L111.28-9.08Q111.72-6.72 113.58-5.34Q115.44-3.96 118.20-3.96L118.20-3.96Q121.72-3.96 124.00-6.28L124.00-6.28L126.68-3.20Q125.24-1.48 123.04-0.60Q120.84 0.28 118.08 0.28L118.08 0.28Q114.56 0.28 111.88-1.12Q109.20-2.52 107.74-5.02Q106.28-7.52 106.28-10.68L106.28-10.68Q106.28-13.80 107.70-16.30Q109.12-18.80 111.64-20.20Q114.16-21.60 117.32-21.60L117.32-21.60Q120.44-21.60 122.90-20.22Q125.36-18.84 126.74-16.34Q128.12-13.84 128.12-10.56L128.12-10.56ZM117.32-17.60Q114.92-17.60 113.26-16.18Q111.60-14.76 111.24-12.40L111.24-12.40L123.36-12.40Q123.04-14.72 121.40-16.16Q119.76-17.60 117.32-17.60L117.32-17.60Z M146.24-21.60Q150.28-21.60 152.72-19.24Q155.16-16.88 155.16-12.24L155.16-12.24L155.16 0L150.16 0L150.16-11.60Q150.16-14.40 148.84-15.82Q147.52-17.24 145.08-17.24L145.08-17.24Q142.32-17.24 140.72-15.58Q139.12-13.92 139.12-10.80L139.12-10.80L139.12 0L134.12 0L134.12-21.36L138.88-21.36L138.88-18.60Q140.12-20.08 142-20.84Q143.88-21.60 146.24-21.60L146.24-21.60Z M183.12-21.60Q187.84-21.60 190.34-19.34Q192.84-17.08 192.84-12.52L192.84-12.52L192.84 0L188.12 0L188.12-2.60Q187.20-1.20 185.50-0.46Q183.80 0.28 181.40 0.28L181.40 0.28Q179.00 0.28 177.20-0.54Q175.40-1.36 174.42-2.82Q173.44-4.28 173.44-6.12L173.44-6.12Q173.44-9 175.58-10.74Q177.72-12.48 182.32-12.48L182.32-12.48L187.84-12.48L187.84-12.80Q187.84-15.04 186.50-16.24Q185.16-17.44 182.52-17.44L182.52-17.44Q180.72-17.44 178.98-16.88Q177.24-16.32 176.04-15.32L176.04-15.32L174.08-18.96Q175.76-20.24 178.12-20.92Q180.48-21.60 183.12-21.60L183.12-21.60ZM182.44-3.36Q184.32-3.36 185.78-4.22Q187.24-5.08 187.84-6.68L187.84-6.68L187.84-9.16L182.68-9.16Q178.36-9.16 178.36-6.32L178.36-6.32Q178.36-4.96 179.44-4.16Q180.52-3.36 182.44-3.36L182.44-3.36Z M205.20-18.24Q207.36-21.60 212.80-21.60L212.80-21.60L212.80-16.84Q212.16-16.96 211.64-16.96L211.64-16.96Q208.72-16.96 207.08-15.26Q205.44-13.56 205.44-10.36L205.44-10.36L205.44 0L200.44 0L200.44-21.36L205.20-21.36L205.20-18.24Z M245.20-21.60Q249.24-21.60 251.60-19.26Q253.96-16.92 253.96-12.24L253.96-12.24L253.96 0L248.96 0L248.96-11.60Q248.96-14.40 247.72-15.82Q246.48-17.24 244.16-17.24L244.16-17.24Q241.64-17.24 240.12-15.58Q238.60-13.92 238.60-10.84L238.60-10.84L238.60 0L233.60 0L233.60-11.60Q233.60-14.40 232.36-15.82Q231.12-17.24 228.80-17.24L228.80-17.24Q226.24-17.24 224.74-15.60Q223.24-13.96 223.24-10.84L223.24-10.84L223.24 0L218.24 0L218.24-21.36L223.00-21.36L223.00-18.64Q224.20-20.08 226.00-20.84Q227.80-21.60 230.00-21.60L230.00-21.60Q232.40-21.60 234.26-20.70Q236.12-19.80 237.20-18.04L237.20-18.04Q238.52-19.72 240.60-20.66Q242.68-21.60 245.20-21.60L245.20-21.60Z M271.36 0.28Q268.12 0.28 265.52-1.12Q262.92-2.52 261.46-5.02Q260.00-7.52 260.00-10.68L260.00-10.68Q260.00-13.84 261.46-16.32Q262.92-18.80 265.52-20.20Q268.12-21.60 271.36-21.60L271.36-21.60Q274.64-21.60 277.24-20.20Q279.84-18.80 281.30-16.32Q282.76-13.84 282.76-10.68L282.76-10.68Q282.76-7.52 281.30-5.02Q279.84-2.52 277.24-1.12Q274.64 0.28 271.36 0.28L271.36 0.28ZM271.36-4Q274.12-4 275.92-5.84Q277.72-7.68 277.72-10.68L277.72-10.68Q277.72-13.68 275.92-15.52Q274.12-17.36 271.36-17.36L271.36-17.36Q268.60-17.36 266.82-15.52Q265.04-13.68 265.04-10.68L265.04-10.68Q265.04-7.68 266.82-5.84Q268.60-4 271.36-4L271.36-4Z M300.88-21.60Q304.92-21.60 307.36-19.24Q309.80-16.88 309.80-12.24L309.80-12.24L309.80 0L304.80 0L304.80-11.60Q304.80-14.40 303.48-15.82Q302.16-17.24 299.72-17.24L299.72-17.24Q296.96-17.24 295.36-15.58Q293.76-13.92 293.76-10.80L293.76-10.80L293.76 0L288.76 0L288.76-21.36L293.52-21.36L293.52-18.60Q294.76-20.08 296.64-20.84Q298.52-21.60 300.88-21.60L300.88-21.60Z M317.36 0L317.36-21.36L322.36-21.36L322.36 0L317.36 0ZM316.52-24.28L321.92-29.76L327.80-29.76L320.84-24.28L316.52-24.28Z M338.28-21.60Q343.00-21.60 345.50-19.34Q348.00-17.08 348.00-12.52L348.00-12.52L348.00 0L343.28 0L343.28-2.60Q342.36-1.20 340.66-0.46Q338.96 0.28 336.56 0.28L336.56 0.28Q334.16 0.28 332.36-0.54Q330.56-1.36 329.58-2.82Q328.60-4.28 328.60-6.12L328.60-6.12Q328.60-9 330.74-10.74Q332.88-12.48 337.48-12.48L337.48-12.48L343.00-12.48L343.00-12.80Q343.00-15.04 341.66-16.24Q340.32-17.44 337.68-17.44L337.68-17.44Q335.88-17.44 334.14-16.88Q332.40-16.32 331.20-15.32L331.20-15.32L329.24-18.96Q330.92-20.24 333.28-20.92Q335.64-21.60 338.28-21.60L338.28-21.60ZM337.60-3.36Q339.48-3.36 340.94-4.22Q342.40-5.08 343.00-6.68L343.00-6.68L343.00-9.16L337.84-9.16Q333.52-9.16 333.52-6.32L333.52-6.32Q333.52-4.96 334.60-4.16Q335.68-3.36 337.60-3.36L337.60-3.36Z M383.04-21.36L387.84-21.36L378.68 0L373.52 0L364.36-21.36L369.56-21.36L376.20-5.52L383.04-21.36Z M411.64-10.56Q411.64-10.04 411.56-9.08L411.56-9.08L394.80-9.08Q395.24-6.72 397.10-5.34Q398.96-3.96 401.72-3.96L401.72-3.96Q405.24-3.96 407.52-6.28L407.52-6.28L410.20-3.20Q408.76-1.48 406.56-0.60Q404.36 0.28 401.60 0.28L401.60 0.28Q398.08 0.28 395.40-1.12Q392.72-2.52 391.26-5.02Q389.80-7.52 389.80-10.68L389.80-10.68Q389.80-13.80 391.22-16.30Q392.64-18.80 395.16-20.20Q397.68-21.60 400.84-21.60L400.84-21.60Q403.96-21.60 406.42-20.22Q408.88-18.84 410.26-16.34Q411.64-13.84 411.64-10.56L411.64-10.56ZM400.84-17.60Q398.44-17.60 396.78-16.18Q395.12-14.76 394.76-12.40L394.76-12.40L406.88-12.40Q406.56-14.72 404.92-16.16Q403.28-17.60 400.84-17.60L400.84-17.60Z M422.40-18.24Q424.56-21.60 430.00-21.60L430.00-21.60L430.00-16.84Q429.36-16.96 428.84-16.96L428.84-16.96Q425.92-16.96 424.28-15.26Q422.64-13.56 422.64-10.36L422.64-10.36L422.64 0L417.64 0L417.64-21.36L422.40-21.36L422.40-18.24Z M451.16-29.68L456.16-29.68L456.16 0L451.36 0L451.36-2.76Q450.12-1.24 448.30-0.48Q446.48 0.28 444.28 0.28L444.28 0.28Q441.20 0.28 438.74-1.08Q436.28-2.44 434.88-4.94Q433.48-7.44 433.48-10.68L433.48-10.68Q433.48-13.92 434.88-16.40Q436.28-18.88 438.74-20.24Q441.20-21.60 444.28-21.60L444.28-21.60Q446.40-21.60 448.16-20.88Q449.92-20.16 451.16-18.72L451.16-18.72L451.16-29.68ZM444.88-4Q446.68-4 448.12-4.82Q449.56-5.64 450.40-7.16Q451.24-8.68 451.24-10.68L451.24-10.68Q451.24-12.68 450.40-14.20Q449.56-15.72 448.12-16.54Q446.68-17.36 444.88-17.36L444.88-17.36Q443.08-17.36 441.64-16.54Q440.20-15.72 439.36-14.20Q438.52-12.68 438.52-10.68L438.52-10.68Q438.52-8.68 439.36-7.16Q440.20-5.64 441.64-4.82Q443.08-4 444.88-4L444.88-4Z M484.00-10.56Q484.00-10.04 483.92-9.08L483.92-9.08L467.16-9.08Q467.60-6.72 469.46-5.34Q471.32-3.96 474.08-3.96L474.08-3.96Q477.60-3.96 479.88-6.28L479.88-6.28L482.56-3.20Q481.12-1.48 478.92-0.60Q476.72 0.28 473.96 0.28L473.96 0.28Q470.44 0.28 467.76-1.12Q465.08-2.52 463.62-5.02Q462.16-7.52 462.16-10.68L462.16-10.68Q462.16-13.80 463.58-16.30Q465.00-18.80 467.52-20.20Q470.04-21.60 473.20-21.60L473.20-21.60Q476.32-21.60 478.78-20.22Q481.24-18.84 482.62-16.34Q484.00-13.84 484.00-10.56L484.00-10.56ZM473.20-17.60Q470.80-17.60 469.14-16.18Q467.48-14.76 467.12-12.40L467.12-12.40L479.24-12.40Q478.92-14.72 477.28-16.16Q475.64-17.60 473.20-17.60L473.20-17.60Z"/></g>
</svg>
</g><g opacity="1" transform="rotate(0 155.2059 120.5966)">
<svg width="384.2514" height="36" x="155.2059" y="120.5966" version="1.1" preserveAspectRatio="none" viewBox="3.32 -28.48 309.08000000000004 28.96">
  <g transform="matrix(1 0 0 1 0 0)" class="companyName"><path id="id-D6z1nYkh12" d="M23.88-14.56Q26.28-13.80 27.64-12.02Q29-10.24 29-7.64L29-7.64Q29-3.96 26.14-1.98Q23.28 0 17.80 0L17.80 0L3.32 0L3.32-28L17-28Q22.12-28 24.86-26.04Q27.60-24.08 27.60-20.72L27.60-20.72Q27.60-18.68 26.62-17.08Q25.64-15.48 23.88-14.56L23.88-14.56ZM16.20-23.12L9.76-23.12L9.76-16.52L16.20-16.52Q18.60-16.52 19.84-17.36Q21.08-18.20 21.08-19.84L21.08-19.84Q21.08-21.48 19.84-22.30Q18.60-23.12 16.20-23.12L16.20-23.12ZM17.32-4.88Q19.88-4.88 21.18-5.72Q22.48-6.56 22.48-8.32L22.48-8.32Q22.48-11.80 17.32-11.80L17.32-11.80L9.76-11.80L9.76-4.88L17.32-4.88Z M33.92 0L33.92-28L40.40-28L40.40 0L33.92 0Z M60.44 0.48Q56.16 0.48 52.70-1.38Q49.24-3.24 47.26-6.54Q45.28-9.84 45.28-14L45.28-14Q45.28-18.16 47.26-21.46Q49.24-24.76 52.70-26.62Q56.16-28.48 60.48-28.48L60.48-28.48Q64.12-28.48 67.06-27.20Q70-25.92 72-23.52L72-23.52L67.84-19.68Q65-22.96 60.80-22.96L60.80-22.96Q58.20-22.96 56.16-21.82Q54.12-20.68 52.98-18.64Q51.84-16.60 51.84-14L51.84-14Q51.84-11.40 52.98-9.36Q54.12-7.32 56.16-6.18Q58.20-5.04 60.80-5.04L60.80-5.04Q65-5.04 67.84-8.36L67.84-8.36L72-4.52Q70-2.08 67.04-0.80Q64.08 0.48 60.44 0.48L60.44 0.48Z M95.56-28L102.04-28L102.04 0L95.56 0L95.56-11.48L82.84-11.48L82.84 0L76.36 0L76.36-28L82.84-28L82.84-16.96L95.56-16.96L95.56-28Z M122.24 0.48Q117.88 0.48 114.38-1.40Q110.88-3.28 108.90-6.58Q106.92-9.88 106.92-14L106.92-14Q106.92-18.12 108.90-21.42Q110.88-24.72 114.38-26.60Q117.88-28.48 122.24-28.48L122.24-28.48Q126.60-28.48 130.08-26.60Q133.56-24.72 135.56-21.42Q137.56-18.12 137.56-14L137.56-14Q137.56-9.88 135.56-6.58Q133.56-3.28 130.08-1.40Q126.60 0.48 122.24 0.48L122.24 0.48ZM122.24-5.04Q124.72-5.04 126.72-6.18Q128.72-7.32 129.86-9.36Q131-11.40 131-14L131-14Q131-16.60 129.86-18.64Q128.72-20.68 126.72-21.82Q124.72-22.96 122.24-22.96L122.24-22.96Q119.76-22.96 117.76-21.82Q115.76-20.68 114.62-18.64Q113.48-16.60 113.48-14L113.48-14Q113.48-11.40 114.62-9.36Q115.76-7.32 117.76-6.18Q119.76-5.04 122.24-5.04L122.24-5.04Z M161.60 0L152.64-11L148.88-7.08L148.88 0L142.44 0L142.44-28L148.88-28L148.88-14.92L161.28-28L168.48-28L156.88-15.52L169.16 0L161.60 0Z M172.04 0L172.04-28L178.52-28L178.52 0L172.04 0Z M185.16 0L185.16-28L191.64-28L191.64-5.28L205.68-5.28L205.68 0L185.16 0Z M209.32 0L209.32-28L215.80-28L215.80-5.28L229.84-5.28L229.84 0L209.32 0Z M239.92-5.20L255.16-5.20L255.16 0L233.48 0L233.48-28L254.64-28L254.64-22.80L239.92-22.80L239.92-16.72L252.92-16.72L252.92-11.68L239.92-11.68L239.92-5.20Z M285.12 0L278.16 0L272.76-7.80L272.44-7.80L266.80-7.80L266.80 0L260.32 0L260.32-28L272.44-28Q276.16-28 278.90-26.76Q281.64-25.52 283.12-23.24Q284.60-20.96 284.60-17.84L284.60-17.84Q284.60-14.72 283.10-12.46Q281.60-10.20 278.84-9L278.84-9L285.12 0ZM278.04-17.84Q278.04-20.20 276.52-21.46Q275.00-22.72 272.08-22.72L272.08-22.72L266.80-22.72L266.80-12.96L272.08-12.96Q275.00-12.96 276.52-14.24Q278.04-15.52 278.04-17.84L278.04-17.84Z M296.48-5.28L312.40-5.28L312.40 0L287.92 0L287.92-4.20L303.28-22.72L288.24-22.72L288.24-28L311.80-28L311.80-23.80L296.48-5.28Z"/></g>
</svg>
</g></svg></svg>